<?xml version="1.0" encoding="utf-8"?>
<!-- Generator: Adobe Illustrator 16.0.0, SVG Export Plug-In . SVG Version: 6.00 Build 0)  -->
<!DOCTYPE svg PUBLIC "-//W3C//DTD SVG 1.1//EN" "http://www.w3.org/Graphics/SVG/1.1/DTD/svg11.dtd">
<svg version="1.1" id="Layer_1" xmlns="http://www.w3.org/2000/svg" xmlns:xlink="http://www.w3.org/1999/xlink" x="0px" y="0px"
	 width="141.408px" height="150.237px" viewBox="-288.908 244.763 141.408 150.237"
	 enable-background="new -288.908 244.763 141.408 150.237" xml:space="preserve">
<path d="M-177.882,302.389c-8.661,0-16.445,3.608-21.986,9.491c-2.347,2.492-6.42,5.445-10.828,8.042
	c2.07-7.903,8.608-17.855,13.15-22.221c5.816-5.601,9.387-13.474,9.387-22.228c0.001-16.857-13.421-30.531-30.045-30.711
	c-16.626,0.179-30.047,13.854-30.047,30.71c0,8.755,3.572,16.628,9.388,22.228c4.542,4.366,11.08,14.318,13.15,22.222
	c-4.408-2.598-8.481-5.55-10.828-8.042c-5.541-5.883-13.325-9.491-21.985-9.491c-16.782,0-30.382,13.741-30.382,30.711
	c0,16.967,13.6,30.714,30.382,30.714c8.663,0,16.444-3.72,21.985-9.603c2.466-2.623,6.814-5.89,11.487-8.603
	c-0.441,21.669-10.789,37.584-21.321,43.854V395h56.341v-5.537c-10.533-6.27-20.88-22.186-21.321-43.854
	c4.673,2.714,9.021,5.981,11.487,8.603c5.541,5.883,13.323,9.603,21.985,9.603c16.782,0,30.382-13.747,30.382-30.713
	C-147.5,316.131-161.1,302.389-177.882,302.389L-177.882,302.389z"/>
</svg>
