<?xml version="1.0" encoding="utf-8"?>
<!-- Generator: Adobe Illustrator 16.0.3, SVG Export Plug-In . SVG Version: 6.00 Build 0)  -->
<!DOCTYPE svg PUBLIC "-//W3C//DTD SVG 1.1//EN" "http://www.w3.org/Graphics/SVG/1.1/DTD/svg11.dtd">
<svg version="1.1" id="deathStar" xmlns="http://www.w3.org/2000/svg" xmlns:xlink="http://www.w3.org/1999/xlink" x="0px" y="0px"
	 width="200.063px" height="200.422px" viewBox="0 0 200.063 200.422" style="enable-background:new 0 0 200.063 200.422;"
	 xml:space="preserve">
<style type="text/css">
<![CDATA[
	
]]>
</style>
<g id="deathStar_1_">
	<path class="st0" d="M200.062,96.631c-0.219-6.116-0.918-12.107-2.182-17.896h-40.584v-7.156h14.314V64.42h-28.633v-7.158h21.477
		v-7.156h-7.158v-7.158H142.98v-7.16h7.158v-7.156h-14.316v-7.157h7.158v-7.157V9.772C129.951,3.575,115.426,0,100.032,0
		C45.893,0,1.9,42.958,0,96.633h200.062V96.631z M64.243,21.472c15.81,0,28.632,12.821,28.632,28.632
		c0,15.813-12.822,28.631-28.632,28.631c-15.816,0-28.633-12.816-28.633-28.631C35.611,34.294,48.426,21.472,64.243,21.472"/>
	<path class="st0" d="M121.506,193.263h-7.158v-7.157h21.475v-7.158h7.158v-7.158h21.475v-7.157h7.158v-7.158h-14.316v-7.157H135.82
		v-7.158h14.316V136h28.633v-7.157h-14.314v-7.157h33.428c1.262-5.789,1.961-11.777,2.18-17.896H0
		c1.898,53.681,45.893,96.633,100.033,96.633c7.38,0,14.552-0.854,21.474-2.361v-4.798H121.506z"/>
</g>
</svg>
