<?xml version="1.0" encoding="utf-8"?>
<!-- Generator: Adobe Illustrator 16.0.3, SVG Export Plug-In . SVG Version: 6.00 Build 0)  -->
<!DOCTYPE svg PUBLIC "-//W3C//DTD SVG 1.1//EN" "http://www.w3.org/Graphics/SVG/1.1/DTD/svg11.dtd">
<svg version="1.1" id="x-wing" xmlns="http://www.w3.org/2000/svg" xmlns:xlink="http://www.w3.org/1999/xlink" x="0px" y="0px"
	 width="19.804px" height="7.426px" viewBox="114.727 139.122 19.804 7.426"
	 style="enable-background:new 114.727 139.122 19.804 7.426;" xml:space="preserve">
<g id="x-wing">
	<path d="M125.453,140.36c0-0.456-0.37-0.825-0.825-0.825s-0.825,0.369-0.825,0.825v0.207h1.651L125.453,140.36z M124.628,140.183
		c-0.13,0-0.236-0.105-0.236-0.235s0.105-0.235,0.236-0.235c0.13,0,0.235,0.105,0.235,0.235
		C124.864,140.077,124.758,140.183,124.628,140.183z M125.1,140.36c-0.065,0-0.118-0.053-0.118-0.118s0.053-0.118,0.118-0.118
		c0.065,0,0.118,0.053,0.118,0.118S125.165,140.36,125.1,140.36z"/>
	<path d="M122.75,143.102l0.009-0.043l0.22-1.048h-0.321c0.126-0.14,0.225-0.31,0.277-0.505c0.177-0.66-0.215-1.338-0.875-1.516
		c-0.66-0.177-1.339,0.215-1.516,0.875c-0.003,0.009-0.002,0.018-0.004,0.026l-1.13,0.286l-3.139-0.833
		c0.065-0.118,0.105-0.251,0.105-0.396c0-0.456-0.37-0.825-0.825-0.825s-0.825,0.369-0.825,0.825c0,0.399,0.284,0.732,0.661,0.809
		l6.822,1.873l-6.822,1.873c-0.377,0.076-0.661,0.409-0.661,0.809c0,0.456,0.37,0.825,0.825,0.825s0.825-0.369,0.825-0.825
		c0-0.144-0.04-0.277-0.105-0.395l3.139-0.834l1.129,0.286c0.002,0.009,0.002,0.018,0.004,0.026c0.177,0.66,0.855,1.052,1.516,0.875
		c0.546-0.146,0.903-0.637,0.911-1.176l-0.212-0.947L122.75,143.102z M115.552,140.36c-0.228,0-0.413-0.185-0.413-0.413
		s0.185-0.413,0.413-0.413c0.228,0,0.413,0.185,0.413,0.413S115.779,140.36,115.552,140.36z M115.552,145.724
		c-0.228,0-0.413-0.186-0.413-0.413s0.185-0.413,0.413-0.413c0.228,0,0.413,0.185,0.413,0.413S115.779,145.724,115.552,145.724z
		 M121.526,141.982c-0.406-0.109-0.656-0.502-0.6-0.908l1.574,0.421C122.346,141.875,121.933,142.091,121.526,141.982z
		 M120.927,144.185c-0.056-0.406,0.194-0.8,0.6-0.908c0.406-0.109,0.819,0.107,0.974,0.486L120.927,144.185z M121.954,144.87
		c-0.406,0.109-0.819-0.107-0.974-0.486l1.574-0.422C122.61,144.368,122.36,144.761,121.954,144.87z M122.554,141.296l-1.574-0.421
		c0.155-0.379,0.568-0.596,0.974-0.487C122.36,140.497,122.61,140.891,122.554,141.296z"/>
	<path d="M133.869,144.502l-6.822-1.873l6.822-1.873c0.377-0.076,0.661-0.409,0.661-0.809c0-0.456-0.37-0.825-0.825-0.825
		c-0.456,0-0.825,0.369-0.825,0.825c0,0.144,0.04,0.277,0.105,0.396l-3.139,0.833l-1.13-0.286c-0.002-0.009-0.002-0.018-0.004-0.026
		c-0.177-0.66-0.856-1.052-1.516-0.875c-0.66,0.177-1.052,0.855-0.875,1.516c0.052,0.196,0.15,0.365,0.277,0.505h-0.33l0.213,1.049
		l0.008,0.042l-0.009,0.042l-0.2,0.927h0.003c-0.001,0.547,0.359,1.049,0.913,1.198c0.66,0.177,1.339-0.215,1.516-0.875
		c0.002-0.009,0.002-0.018,0.004-0.026l1.129-0.286l3.139,0.834c-0.064,0.118-0.104,0.251-0.104,0.395
		c0,0.456,0.37,0.825,0.825,0.825c0.455,0,0.825-0.369,0.825-0.825C134.53,144.911,134.246,144.578,133.869,144.502z
		 M133.705,139.535c0.228,0,0.413,0.185,0.413,0.413s-0.185,0.413-0.413,0.413c-0.228,0-0.413-0.185-0.413-0.413
		S133.477,139.535,133.705,139.535z M128.33,141.073c0.056,0.406-0.194,0.8-0.601,0.908c-0.406,0.109-0.819-0.107-0.974-0.486
		L128.33,141.073z M127.303,140.388c0.406-0.109,0.819,0.107,0.974,0.487l-1.574,0.422
		C126.647,140.891,126.896,140.497,127.303,140.388z M127.303,144.87c-0.406-0.109-0.656-0.502-0.601-0.908l1.574,0.422
		C128.122,144.763,127.709,144.979,127.303,144.87z M128.33,144.185l-1.574-0.422c0.155-0.379,0.568-0.595,0.974-0.486
		C128.136,143.385,128.386,143.778,128.33,144.185z M133.705,145.724c-0.228,0-0.413-0.186-0.413-0.413s0.185-0.413,0.413-0.413
		c0.228,0,0.413,0.185,0.413,0.413S133.933,145.724,133.705,145.724z"/>
	<path d="M123.449,140.772l-0.488,2.328l0.418,2.221l0.506-1.248h1.486l0.504,1.244l0.403-2.217l-0.472-2.328H123.449z
		 M123.525,142.423l0.21-1.002l0.136,1.002H123.525z M125.177,142.423h-1.099l-0.167-1.238h1.434L125.177,142.423z M125.385,142.423
		l0.134-0.991l0.201,0.991H125.385z"/>
	<path d="M124.024,144.279l-0.575,1.417l0.315,0.852h1.726l0.316-0.852l-0.575-1.417H124.024z M124.938,145.104h-0.619v-0.619h0.619
		V145.104z"/>
</g>
</svg>
